<svg width="208" height="29" viewBox="0 0 208 29" fill="none" xmlns="http://www.w3.org/2000/svg">
<path d="M79.92 21H77.66L76.4 17.54H70.86L69.6 21H67.4L72.38 7.8H74.94L79.92 21ZM71.46 15.8H75.8L73.64 9.64L71.46 15.8ZM81.9608 21V11H83.8608L83.9608 12.68C84.3074 12.04 84.7674 11.5667 85.3408 11.26C85.9274 10.9533 86.5474 10.8 87.2008 10.8C87.9208 10.8 88.5808 10.9667 89.1808 11.3C89.7941 11.62 90.2541 12.1067 90.5608 12.76C90.7741 12.32 91.0674 11.9533 91.4408 11.66C91.8141 11.3667 92.2274 11.1533 92.6808 11.02C93.1341 10.8733 93.5808 10.8 94.0208 10.8C94.6608 10.8 95.2608 10.9333 95.8208 11.2C96.3808 11.4667 96.8341 11.8733 97.1808 12.42C97.5274 12.9667 97.7008 13.6667 97.7008 14.52V21H95.5608V14.86C95.5608 14.0467 95.3674 13.46 94.9808 13.1C94.5941 12.74 94.1008 12.56 93.5008 12.56C93.0341 12.56 92.6008 12.6733 92.2008 12.9C91.8141 13.1267 91.5008 13.4667 91.2608 13.92C91.0208 14.36 90.9008 14.9067 90.9008 15.56V21H88.7608V14.86C88.7608 14.0467 88.5674 13.46 88.1808 13.1C87.7941 12.74 87.3008 12.56 86.7008 12.56C86.3008 12.56 85.9008 12.6667 85.5008 12.88C85.1008 13.0933 84.7674 13.4267 84.5008 13.88C84.2341 14.3333 84.1008 14.9333 84.1008 15.68V21H81.9608ZM100.945 25.2V11H102.845L103.005 13.8L102.725 13.46C102.885 12.94 103.132 12.48 103.465 12.08C103.798 11.68 104.212 11.3667 104.705 11.14C105.212 10.9133 105.765 10.8 106.365 10.8C107.178 10.8 107.918 11.0067 108.585 11.42C109.252 11.8333 109.778 12.4267 110.165 13.2C110.552 13.96 110.745 14.8867 110.745 15.98C110.745 17.0733 110.545 18.0133 110.145 18.8C109.758 19.5733 109.225 20.1667 108.545 20.58C107.878 20.9933 107.132 21.2 106.305 21.2C105.452 21.2 104.725 20.98 104.125 20.54C103.525 20.0867 103.098 19.5133 102.845 18.82L103.085 18.48V25.2H100.945ZM105.845 19.46C106.712 19.46 107.385 19.1533 107.865 18.54C108.358 17.9267 108.605 17.08 108.605 16C108.605 14.92 108.365 14.0733 107.885 13.46C107.405 12.8333 106.738 12.52 105.885 12.52C105.325 12.52 104.832 12.6667 104.405 12.96C103.992 13.24 103.665 13.64 103.425 14.16C103.198 14.6667 103.085 15.28 103.085 16C103.085 16.7067 103.198 17.32 103.425 17.84C103.652 18.36 103.972 18.76 104.385 19.04C104.798 19.32 105.285 19.46 105.845 19.46ZM117.884 21.2C116.884 21.2 116.004 20.9933 115.244 20.58C114.484 20.1667 113.891 19.5733 113.464 18.8C113.051 18.0133 112.844 17.08 112.844 16C112.844 14.92 113.051 13.9933 113.464 13.22C113.891 12.4333 114.478 11.8333 115.224 11.42C115.971 11.0067 116.818 10.8 117.764 10.8C118.738 10.8 119.564 11 120.244 11.4C120.924 11.8 121.444 12.3467 121.804 13.04C122.164 13.7333 122.344 14.52 122.344 15.4C122.344 15.64 122.338 15.8667 122.324 16.08C122.311 16.2933 122.291 16.48 122.264 16.64H114.224V15H121.324L120.264 15.32C120.264 14.4133 120.038 13.72 119.584 13.24C119.131 12.7467 118.511 12.5 117.724 12.5C117.151 12.5 116.651 12.6333 116.224 12.9C115.798 13.1667 115.471 13.5667 115.244 14.1C115.018 14.62 114.904 15.26 114.904 16.02C114.904 16.7667 115.024 17.4 115.264 17.92C115.504 18.44 115.844 18.8333 116.284 19.1C116.724 19.3667 117.244 19.5 117.844 19.5C118.511 19.5 119.051 19.3733 119.464 19.12C119.878 18.8667 120.204 18.5133 120.444 18.06L122.144 18.86C121.904 19.34 121.578 19.76 121.164 20.12C120.764 20.4667 120.284 20.7333 119.724 20.92C119.164 21.1067 118.551 21.2 117.884 21.2ZM125.047 21V11H126.867L127.067 12.8C127.333 12.1467 127.727 11.6533 128.247 11.32C128.78 10.9733 129.433 10.8 130.207 10.8C130.407 10.8 130.607 10.82 130.807 10.86C131.007 10.8867 131.173 10.9333 131.307 11L131.007 12.88C130.86 12.8267 130.693 12.7867 130.507 12.76C130.333 12.72 130.093 12.7 129.787 12.7C129.373 12.7 128.967 12.8133 128.567 13.04C128.167 13.2533 127.833 13.58 127.567 14.02C127.313 14.46 127.187 15.02 127.187 15.7V21H125.047ZM137.474 21.2C136.474 21.2 135.594 20.9933 134.834 20.58C134.074 20.1667 133.481 19.5733 133.054 18.8C132.641 18.0133 132.434 17.08 132.434 16C132.434 14.92 132.641 13.9933 133.054 13.22C133.481 12.4333 134.067 11.8333 134.814 11.42C135.561 11.0067 136.407 10.8 137.354 10.8C138.327 10.8 139.154 11 139.834 11.4C140.514 11.8 141.034 12.3467 141.394 13.04C141.754 13.7333 141.934 14.52 141.934 15.4C141.934 15.64 141.927 15.8667 141.914 16.08C141.901 16.2933 141.881 16.48 141.854 16.64H133.814V15H140.914L139.854 15.32C139.854 14.4133 139.627 13.72 139.174 13.24C138.721 12.7467 138.101 12.5 137.314 12.5C136.741 12.5 136.241 12.6333 135.814 12.9C135.387 13.1667 135.061 13.5667 134.834 14.1C134.607 14.62 134.494 15.26 134.494 16.02C134.494 16.7667 134.614 17.4 134.854 17.92C135.094 18.44 135.434 18.8333 135.874 19.1C136.314 19.3667 136.834 19.5 137.434 19.5C138.101 19.5 138.641 19.3733 139.054 19.12C139.467 18.8667 139.794 18.5133 140.034 18.06L141.734 18.86C141.494 19.34 141.167 19.76 140.754 20.12C140.354 20.4667 139.874 20.7333 139.314 20.92C138.754 21.1067 138.141 21.2 137.474 21.2ZM154.935 7.8L150.035 21H147.535L142.635 7.8H144.915L147.995 16.58L148.795 19.2L149.595 16.6L152.675 7.8H154.935ZM158.119 9.32C157.652 9.32 157.292 9.20667 157.039 8.98C156.799 8.74 156.679 8.40667 156.679 7.98C156.679 7.55333 156.799 7.22667 157.039 7C157.292 6.77333 157.652 6.66 158.119 6.66C158.572 6.66 158.919 6.77333 159.159 7C159.412 7.22667 159.539 7.55333 159.539 7.98C159.539 8.40667 159.412 8.74 159.159 8.98C158.919 9.20667 158.572 9.32 158.119 9.32ZM159.179 11V21H157.039V11H159.179ZM166.367 21.2C165.541 21.2 164.787 20.9933 164.107 20.58C163.441 20.1667 162.914 19.5733 162.527 18.8C162.141 18.0267 161.947 17.1 161.947 16.02C161.947 14.9 162.154 13.9533 162.567 13.18C162.981 12.4067 163.534 11.82 164.227 11.42C164.921 11.0067 165.681 10.8 166.507 10.8C167.361 10.8 168.081 11.0333 168.667 11.5C169.254 11.9667 169.647 12.5733 169.847 13.32L169.607 13.54V6.5H171.747V21H169.847L169.687 18.28L169.967 18.3C169.874 18.9 169.654 19.42 169.307 19.86C168.961 20.2867 168.527 20.62 168.007 20.86C167.501 21.0867 166.954 21.2 166.367 21.2ZM166.827 19.48C167.401 19.48 167.894 19.3333 168.307 19.04C168.721 18.7467 169.041 18.3333 169.267 17.8C169.494 17.2667 169.607 16.6267 169.607 15.88C169.607 15.1867 169.494 14.5933 169.267 14.1C169.041 13.5933 168.721 13.2067 168.307 12.94C167.907 12.6733 167.441 12.54 166.907 12.54C166.014 12.54 165.321 12.8467 164.827 13.46C164.334 14.0733 164.087 14.92 164.087 16C164.087 17.08 164.327 17.9333 164.807 18.56C165.287 19.1733 165.961 19.48 166.827 19.48ZM179.466 21.2C178.466 21.2 177.586 20.9933 176.826 20.58C176.066 20.1667 175.473 19.5733 175.046 18.8C174.633 18.0133 174.426 17.08 174.426 16C174.426 14.92 174.633 13.9933 175.046 13.22C175.473 12.4333 176.06 11.8333 176.806 11.42C177.553 11.0067 178.4 10.8 179.346 10.8C180.32 10.8 181.146 11 181.826 11.4C182.506 11.8 183.026 12.3467 183.386 13.04C183.746 13.7333 183.926 14.52 183.926 15.4C183.926 15.64 183.92 15.8667 183.906 16.08C183.893 16.2933 183.873 16.48 183.846 16.64H175.806V15H182.906L181.846 15.32C181.846 14.4133 181.62 13.72 181.166 13.24C180.713 12.7467 180.093 12.5 179.306 12.5C178.733 12.5 178.233 12.6333 177.806 12.9C177.38 13.1667 177.053 13.5667 176.826 14.1C176.6 14.62 176.486 15.26 176.486 16.02C176.486 16.7667 176.606 17.4 176.846 17.92C177.086 18.44 177.426 18.8333 177.866 19.1C178.306 19.3667 178.826 19.5 179.426 19.5C180.093 19.5 180.633 19.3733 181.046 19.12C181.46 18.8667 181.786 18.5133 182.026 18.06L183.726 18.86C183.486 19.34 183.16 19.76 182.746 20.12C182.346 20.4667 181.866 20.7333 181.306 20.92C180.746 21.1067 180.133 21.2 179.466 21.2ZM190.969 10.8C191.942 10.8 192.802 11.0067 193.549 11.42C194.295 11.8333 194.875 12.4333 195.289 13.22C195.715 13.9933 195.929 14.92 195.929 16C195.929 17.08 195.715 18.0133 195.289 18.8C194.875 19.5733 194.295 20.1667 193.549 20.58C192.802 20.9933 191.942 21.2 190.969 21.2C189.995 21.2 189.135 20.9933 188.389 20.58C187.642 20.1667 187.055 19.5733 186.629 18.8C186.202 18.0133 185.989 17.08 185.989 16C185.989 14.92 186.202 13.9933 186.629 13.22C187.055 12.4333 187.642 11.8333 188.389 11.42C189.135 11.0067 189.995 10.8 190.969 10.8ZM190.969 12.48C190.369 12.48 189.855 12.62 189.429 12.9C189.015 13.1667 188.695 13.56 188.469 14.08C188.242 14.6 188.129 15.24 188.129 16C188.129 16.7467 188.242 17.3867 188.469 17.92C188.695 18.44 189.015 18.84 189.429 19.12C189.855 19.3867 190.369 19.52 190.969 19.52C191.569 19.52 192.075 19.3867 192.489 19.12C192.902 18.84 193.222 18.44 193.449 17.92C193.675 17.3867 193.789 16.7467 193.789 16C193.789 15.24 193.675 14.6 193.449 14.08C193.222 13.56 192.902 13.1667 192.489 12.9C192.075 12.62 191.569 12.48 190.969 12.48ZM202.421 21.2C201.421 21.2 200.508 21.0067 199.681 20.62C198.854 20.2333 198.201 19.6867 197.721 18.98L199.201 17.7C199.494 18.2467 199.914 18.6867 200.461 19.02C201.021 19.34 201.688 19.5 202.461 19.5C203.074 19.5 203.561 19.3933 203.921 19.18C204.281 18.9667 204.461 18.6667 204.461 18.28C204.461 18.0267 204.374 17.8067 204.201 17.62C204.041 17.42 203.728 17.2667 203.261 17.16L201.161 16.72C200.094 16.5067 199.334 16.1667 198.881 15.7C198.428 15.22 198.201 14.6133 198.201 13.88C198.201 13.3333 198.361 12.8267 198.681 12.36C199.001 11.8933 199.468 11.52 200.081 11.24C200.708 10.9467 201.454 10.8 202.321 10.8C203.321 10.8 204.174 10.98 204.881 11.34C205.588 11.6867 206.128 12.1867 206.501 12.84L205.021 14.08C204.768 13.5467 204.394 13.1533 203.901 12.9C203.408 12.6333 202.894 12.5 202.361 12.5C201.934 12.5 201.568 12.5533 201.261 12.66C200.954 12.7667 200.721 12.9133 200.561 13.1C200.401 13.2867 200.321 13.5067 200.321 13.76C200.321 14.0267 200.421 14.26 200.621 14.46C200.821 14.66 201.181 14.8133 201.701 14.92L203.981 15.4C204.941 15.5867 205.614 15.9067 206.001 16.36C206.401 16.8 206.601 17.34 206.601 17.98C206.601 18.62 206.434 19.1867 206.101 19.68C205.768 20.16 205.288 20.5333 204.661 20.8C204.034 21.0667 203.288 21.2 202.421 21.2Z" fill="#414141"/>
<rect width="59" height="29" rx="5" fill="#D29EFA"/>
<path d="M40 14L25 22.6603L25 5.33974L40 14Z" fill="white"/>
</svg>
